<svg width="1920" height="1080" viewBox="0 0 1920 1080" fill="none" xmlns="http://www.w3.org/2000/svg">
<g clip-path="url(#clip0_304_1397)">
<rect width="1920" height="1080" fill="#F7F9FC"/>
<g opacity="0.1" clip-path="url(#clip1_304_1397)">
<path d="M480.172 76.8868L478.76 105.629L372.391 52.4936L426.816 58.8746L480.172 76.8868Z" fill="#5950EE"/>
<path d="M478.719 81.3437L491.665 60.2153C492.862 58.2657 491.563 55.7378 489.28 55.5792L354.107 46L455.088 121.912C456.613 123.058 458.803 122.541 459.652 120.837L474.451 91.1737L383.111 56.8892L384.789 54.7042L478.719 81.3437Z" fill="#FFC52F"/>
<path d="M635.21 126.937C631.305 110.148 620.109 95.6255 605.356 86.8651C595.537 81.0316 581.48 76.7844 569.48 79.1127C568.421 78.0637 567.326 77.0556 566.165 76.1499C550.005 63.5567 526.062 67.2052 514.487 84.2144C512.839 86.6348 516.314 89.6641 517.982 87.213C526.476 74.7376 543.015 69.4056 556.908 75.8429C559.574 77.0812 562.076 78.6982 564.333 80.612C560.567 82.0806 557.123 84.327 554.267 87.6326C548.92 93.8192 546.873 103.102 551.745 110.179C556.028 116.396 564.548 119.686 571.405 115.664C577.739 111.949 579.679 103.823 578.809 96.9713C578.169 91.9464 576.025 87.2182 572.996 83.1398C583.281 82.0499 594.892 86.0566 603.003 90.8001C616.916 98.9363 627.196 112.701 630.845 128.401C631.52 131.292 635.875 129.797 635.21 126.937ZM572.32 90.882C574.833 96.2345 575.539 103.501 572.187 108.669C568.319 114.636 560.51 113.581 556.299 108.572C551.197 102.508 553.94 94.0495 559.221 89.091C561.774 86.6962 564.747 85.1304 567.94 84.1633C569.69 86.1999 571.179 88.4514 572.32 90.882Z" fill="#8386AE"/>
</g>
<g opacity="0.1" clip-path="url(#clip2_304_1397)">
<path d="M298.716 946.364C302.267 953.462 321.835 994.337 328.937 1024.54C336.038 1054.74 343.165 1093.83 337.826 1093.83C332.487 1093.83 81.8354 1093.83 56.0601 1093.83C30.2847 1093.83 24.9457 1094.72 24.0516 1091.18C23.1575 1087.63 36.4922 1027.22 59.6109 1002.33C82.7295 977.461 146.721 919.71 146.721 919.71L298.716 946.364Z" fill="#1A1A1A"/>
<path d="M178.832 758.303C182.689 767.903 190.123 775.919 198.732 781.562C208.848 788.174 220.675 791.391 232.605 792.642C244.739 793.919 257.358 793.638 269.467 792.234C278.663 791.187 288.856 788.736 295.498 781.817C302.855 774.132 303.008 763.741 300.3 754.116C303.059 752.89 305.077 750.337 305.92 747.35C307.019 743.291 305.588 739.206 303.187 735.912C301.91 734.176 300.275 732.721 298.589 731.393C296.877 730.015 294.399 728.687 293.556 726.568C292.56 724.066 294.425 721.411 295.14 719.087C295.779 717.045 295.958 715.002 295.702 712.909C294.374 702.518 284.36 697.667 278.306 690.34C271.766 682.348 272.124 671.268 272.481 661.541C272.609 658.528 267.909 658.222 267.781 661.234C267.628 665.37 267.525 669.634 267.832 673.847C263.77 667.234 256.004 663.609 248.188 662.587C237.152 661.183 225.912 665.268 216.767 671.242C198.655 683.114 186.521 703.539 179.624 723.657C175.715 734.891 174.31 746.967 178.832 758.303Z" fill="#1A1A1A"/>
<path d="M149.429 796.982C158.497 802.676 167.541 807.807 174.259 810.437C194.695 818.454 252.479 837.091 272.916 810.437C288.141 790.6 278.229 764.864 272.2 752.992C255.034 757.843 240.933 762.464 240.933 762.464C209.231 772.37 178.295 782.174 149.429 796.982Z" fill="#FFC89E"/>
<path d="M176.634 791.8L235.9 794.174L241.826 771.707L249.388 743.112L249.516 742.627L192.626 732.568L176.634 791.8Z" fill="#FFC89E"/>
<path d="M199.497 755.52C204.07 761.979 212.015 764.813 219.295 766.932C224.276 768.413 229.283 770.022 234.367 771.119C236.794 771.656 239.348 771.936 241.826 771.707L249.413 743.112C238.633 743.24 227.827 743.469 217.149 744.925C212.117 745.614 207.033 746.508 202.128 747.937C198.016 749.112 197.045 752.073 199.497 755.52Z" fill="#FF7E64"/>
<path d="M187.313 642.546C193.239 638.997 215.77 633.865 234.138 634.248C261.395 634.835 274.423 656.154 275.036 669.2C275.623 682.221 273.861 705.913 252.505 717.173C231.174 728.432 164.807 730.193 163.019 729.606C161.231 729.019 187.313 642.546 187.313 642.546Z" fill="#1A1A1A"/>
<path d="M159.519 695.497C159.519 724.73 183.251 748.448 212.5 748.448C241.75 748.448 265.481 724.73 265.481 695.497C265.481 666.264 241.75 642.546 212.5 642.546C183.251 642.546 159.519 666.238 159.519 695.497Z" fill="#FFC89E"/>
<path d="M240.243 767.673C242.031 760.422 243.794 753.171 245.582 745.92C246.297 742.984 250.742 744.491 250.027 747.401C248.392 754.116 246.732 760.831 245.097 767.52C243.487 774.056 240.984 781.051 242.057 787.842C242.517 790.829 237.918 791.723 237.459 788.736C236.309 781.613 238.557 774.566 240.243 767.673Z" fill="#FF7E64"/>
<path d="M185.677 712.526C185.677 737.444 205.884 757.639 230.816 757.639C255.749 757.639 275.955 737.444 275.955 712.526C275.955 687.608 255.749 667.413 230.816 667.413C205.884 667.413 185.677 687.608 185.677 712.526Z" fill="#FFC89E"/>
<path d="M175.025 736.372C175.025 745.537 182.459 752.967 191.63 752.967C200.801 752.967 208.234 745.537 208.234 736.372C208.234 727.206 200.801 719.777 191.63 719.777C182.459 719.802 175.025 727.232 175.025 736.372Z" fill="#FFC89E"/>
<path d="M215.31 684.774C215.821 684.187 216.434 684.008 217.2 683.982C220.802 683.906 224.302 686.791 225.094 690.288C225.784 691.488 226.014 692.944 225.554 694.322C225.145 695.548 223.791 696.161 222.59 695.803C218.58 694.603 215.361 690.927 214.748 686.765C214.62 686.025 214.799 685.361 215.31 684.774Z" fill="#1A1A1A"/>
<path d="M249.081 675.302C249.592 674.715 250.206 674.536 250.972 674.51C254.574 674.434 258.099 677.319 258.865 680.816C259.555 682.016 259.785 683.472 259.325 684.85C258.917 686.076 257.563 686.689 256.362 686.331C252.351 685.131 249.133 681.455 248.519 677.293C248.417 676.553 248.571 675.889 249.081 675.302Z" fill="#1A1A1A"/>
<path d="M236.053 668.357C236.59 670.349 237.484 672.289 238.531 674.051C241.137 678.365 244.585 682.527 248.749 685.386C250.87 686.816 253.194 687.812 255.723 688.323C256.439 688.476 261.548 689.14 260.373 690.799C258.635 693.25 262.518 695.88 264.255 693.429C267.193 689.267 263.055 685.106 259.07 684.212C256.72 683.701 254.497 683.395 252.402 682.119C250.359 680.919 248.622 679.361 247.038 677.625C244.79 675.123 242.389 672.136 241.086 668.868C240.37 668.996 239.323 668.664 238.684 668.536C237.841 668.357 236.896 668.23 236.053 668.357Z" fill="#FF7E64"/>
<path d="M236.053 668.357C236.896 668.23 237.841 668.383 238.71 668.536C239.349 668.664 240.37 668.97 241.111 668.868C240.524 667.438 240.14 665.957 240.089 664.426C239.911 660.775 241.954 656.69 245.76 655.975C248.749 655.413 247.855 650.818 244.866 651.379C240.447 652.196 237.177 655.745 235.951 659.983C235.134 662.74 235.287 665.6 236.053 668.357Z" fill="#1A1A1A"/>
<path d="M260.321 704.918C262.697 703.769 265.072 702.594 267.474 701.445C268.572 700.909 270.105 701.369 270.616 702.543C271.127 703.718 270.692 705.096 269.517 705.684C267.142 706.833 264.74 708.007 262.365 709.156C261.266 709.692 259.733 709.232 259.223 708.058C258.712 706.858 259.146 705.479 260.321 704.918Z" fill="#1A1A1A"/>
<path d="M279.736 751.512C289.213 747.376 336.626 730.193 395.891 746.763C422.203 754.116 477.075 755.648 508.495 780.515C518.356 788.327 537.541 826.7 512.634 852.18C487.753 877.635 407.157 866.401 369.222 864.027C331.287 861.652 298.691 858.103 298.691 858.103L279.736 751.512Z" fill="#0070BA"/>
<path d="M448.029 852.206C479.45 869.95 523.311 849.806 526.249 817.841C527.577 803.391 523.107 755.341 517.232 709.488C506.911 716.228 491.507 722.483 471.148 723.096C456.229 723.555 442.945 720.364 432.216 716.304C431.808 723.811 431.527 729.555 431.45 732.542C430.862 751.512 416.634 834.436 448.029 852.206Z" fill="#0070BA"/>
<path d="M432.216 716.304C442.945 720.364 456.229 723.555 471.147 723.07C491.507 722.457 506.911 716.202 517.231 709.462C511.944 668.102 505.583 628.555 501.342 617.04C492.478 592.786 464.633 580.939 448.029 578.59L439.752 586.888C439.752 586.888 434.285 676.553 432.216 716.304Z" fill="#FFC89E"/>
<path d="M404.347 792.54L490.997 647.83C464.813 632.154 434.848 623.882 404.347 623.882C383.681 623.882 363.193 627.686 343.881 635.09L404.347 792.54Z" fill="#FFC52F"/>
<path d="M389.453 645.533C390.322 651.507 395.916 655.209 401.639 652.758C404.73 651.43 407.207 648.877 409.277 646.299C412.01 642.98 414.565 639.482 417.17 636.086C419.725 632.793 422.305 629.601 424.885 626.333C426.954 628.81 430.556 630.137 433.647 631.388C440.136 634.044 446.777 636.52 453.547 638.435C460.138 640.299 471.633 647.779 477.023 643.72C482.132 639.839 489.745 630.954 493.015 625.363C496.003 620.334 494.624 610.504 491.84 605.219C486.552 595.16 472.757 588.062 465.936 583.339C455.897 576.369 440.493 570.395 429.151 577.11C418.447 583.441 412.036 594.752 406.109 605.27C402.507 611.704 399.288 618.317 396.223 625.031C394.614 628.606 392.953 632.18 391.446 635.78C390.118 638.844 388.968 642.163 389.453 645.533Z" fill="#FFC89E"/>
<path d="M199.625 685.131C202.078 676.348 209.843 669.404 218.81 667.872C220.062 667.668 221.313 668.459 221.569 669.736C221.799 670.961 220.981 672.264 219.704 672.493C215.923 673.132 212.679 674.766 209.818 677.344C209.486 677.651 209.154 677.957 208.822 678.289C208.643 678.468 208.464 678.646 208.311 678.825C207.442 679.872 206.829 680.663 206.293 681.531C206.037 681.965 205.782 682.374 205.526 682.833C205.501 682.884 205.347 683.191 205.322 683.242C205.22 683.446 205.143 683.625 205.041 683.829C204.632 684.748 204.3 685.693 204.045 686.663C203.712 687.888 202.231 688.527 201.081 688.144C199.855 687.659 199.293 686.357 199.625 685.131Z" fill="#1A1A1A"/>
<path d="M50.7978 1047.9C50.7978 1077.13 74.504 1100.83 103.754 1100.83C125.084 1100.83 143.451 1088.24 151.856 1070.09C156.479 1061.87 178.678 980.116 178.678 980.116L303.136 962.346L321.81 925.914C340.228 916.186 352.771 896.859 352.771 874.596C352.771 864.563 350.242 855.116 345.746 846.895C361.15 837.628 371.444 820.777 371.444 801.501C371.444 772.243 347.738 748.55 318.463 748.55C311.975 748.55 284.079 749.648 272.2 752.992C278.255 764.864 288.141 790.6 272.916 810.437C252.479 837.091 194.695 818.454 174.259 810.437C167.515 807.807 158.497 802.676 149.429 796.982C135.302 804.208 121.661 812.607 108.658 822.794C86.1782 840.41 74.9893 866.324 68.6285 894.23C62.702 920.144 60.9138 947.768 58.0782 972.074C56.0857 989.282 54.0931 1006.51 52.4071 1023.75C51.7685 1029.9 48.3454 1041.9 50.7978 1047.9Z" fill="#0070BA"/>
<path d="M110.906 797.11C110.957 797.927 111.392 798.693 112.439 799.025C118.468 800.889 124.65 803.416 130.934 804.105C136.682 804.769 140.871 802.548 145.929 800.25C152.06 797.416 157.706 800.25 163.862 801.399C169.737 802.497 175.766 802.446 181.744 802.344C182.101 802.676 182.51 802.957 183.098 803.033C194.057 804.412 204.556 794.148 203.585 783.145C203.33 780.234 201.286 777.196 203.279 774.592C204.709 772.728 206.881 771.477 208.464 769.766C212.092 765.86 212.628 760.448 211.377 755.392C209.946 749.571 206.267 744.823 204.045 739.333C201.337 732.644 203.304 726.415 205.884 720.032C210.917 707.573 213.114 695.216 212.322 681.761C211.555 668.383 208.567 655.234 205.45 642.239C205.246 641.294 204.633 640.809 203.892 640.58C203.917 639.226 202.921 637.848 201.209 638.18C185.32 641.499 169.84 648.009 157.476 658.681C146.747 667.949 138.649 680.433 135.456 694.297C133.897 701.037 133.489 707.981 134.459 714.875C135.047 719.164 136.375 723.581 135.685 727.947C135.149 731.342 133.233 734.278 130.806 736.653C128.201 739.18 125.135 741.121 121.942 742.831C119.311 744.235 116.45 745.486 114.329 747.657C112.107 749.903 111.264 752.814 111.851 755.929C112.49 759.196 114.585 762.005 113.027 765.324C110.6 770.558 105.031 773.443 103.754 779.391C102.272 786.157 106.615 792.234 110.906 797.11Z" fill="#1A1A1A"/>
<path d="M94.71 772.37C96.958 766.396 102.425 765.656 107.253 762.618C108.658 761.75 110.369 760.294 110.446 758.507C110.497 757.154 109.526 755.903 108.862 754.805C107.355 752.354 106.512 749.852 107.048 746.942C108.096 741.197 113.128 737.419 118.007 734.891C123.832 731.878 129.145 729.427 130.78 722.483C132.134 716.713 131.853 710.56 132.798 704.713C134.791 692.459 139.415 679.821 150.195 672.672C152.673 671.013 155.764 674.561 153.26 676.221C144.575 681.991 140.334 691.514 138.188 701.394C137.09 706.398 136.681 711.479 136.298 716.56C135.889 721.717 135.148 727.206 131.751 731.342C128.481 735.325 123.704 737.163 119.285 739.538C116.73 740.916 114.227 742.678 112.72 745.231C111.008 748.142 111.723 750.414 113.358 753.12C116.04 757.563 115.478 762.107 111.34 765.477C107.483 768.617 100.866 768.975 99.1038 774.234C96.9325 780.668 102.016 786.566 106.435 790.549C111.008 794.659 118.544 799.459 124.011 793.995C126.131 791.851 129.196 795.425 127.076 797.544C117.675 806.99 103.574 796.191 97.7244 787.97C94.4546 783.502 92.6919 777.732 94.71 772.37Z" fill="#1A1A1A"/>
<path d="M173.135 903.932C173.927 901.021 178.372 902.527 177.58 905.412C168.307 939.19 160.388 973.299 153.848 1007.71C153.286 1010.65 148.611 1010.37 149.173 1007.41C155.789 972.61 163.76 938.092 173.135 903.932Z" fill="#E8EAFF"/>
<path d="M170.708 1072.67C206.829 1046.01 248.034 1007.66 248.034 1007.66L218.708 960.585C218.708 960.585 178.091 972.252 139.338 986.269C137.09 1017.8 152.111 1047.24 170.708 1072.67Z" fill="#FFC89E"/>
<path d="M392.621 907.659L539.227 848.631C532.815 832.7 523.823 817.918 512.634 804.871C501.445 791.825 488.212 780.694 473.447 771.911L392.621 907.659Z" fill="#FF8094"/>
<path d="M196.125 1006.51C196.432 1006.92 196.79 1007.23 197.122 1007.59C197.633 1010.63 199.114 1013.46 201.209 1015.83C208.132 1023.72 219.781 1026.79 229.922 1026.91C241.392 1027.04 251.763 1023.14 261.088 1016.68C269.875 1010.6 277.845 1002.76 288.038 999.034C300.734 994.413 314.043 998.013 326.458 1001.41C331.159 1002.69 335.016 1002.1 337.826 997.579C340.227 993.724 340.943 989.205 338.618 985.452C333.177 976.771 321.63 972.789 311.974 971.512C309.726 971.206 307.453 971.078 305.153 971.001C305.92 970.695 306.712 970.44 307.478 970.21C311.668 968.984 316.164 968.806 320.43 969.776C324.772 970.772 328.144 973.044 331.823 975.393C334.837 977.308 338.286 978.967 341.888 977.818C344.953 976.848 346.946 974.014 347.584 970.95C348.146 968.193 347.559 965.359 346.358 962.704C347.738 961.632 348.862 960.253 349.475 958.542C351.927 951.623 346.793 943.658 341.709 939.394C338.49 936.688 334.786 934.875 330.878 933.777C334.991 933.471 339.129 933.547 343.242 933.726C346.895 933.879 350.905 934.288 353.766 931.582C358.671 926.986 356.193 919.327 351.289 915.906C344.8 911.387 335.093 911.361 327.506 912.05C318.616 912.867 309.905 915.676 301.858 919.429C296.264 922.059 290.976 925.148 285.841 928.467C282.086 930.101 278.331 931.76 274.576 933.445C260.372 939.803 246.297 946.338 232.196 952.925C219.959 958.644 205.807 963.853 197.352 974.959C190.25 984.303 188.615 996.966 196.125 1006.51Z" fill="#FFC89E"/>
<path d="M65.8185 1076.95C76.471 1096.51 96.9329 1102.72 127.128 1097.38C136.988 1095.64 153.235 1085.51 170.683 1072.67C152.086 1047.24 137.065 1017.77 139.313 986.269C108.786 997.298 79.4598 1009.81 72.0261 1019.2C55.1661 1040.52 55.1661 1057.42 65.8185 1076.95Z" fill="#0070BA"/>
<path d="M108.965 990.967C113.18 988.541 117.982 987.494 122.734 986.575C127.996 985.554 133.233 984.558 138.496 983.537C141.459 982.975 142.353 987.571 139.39 988.133C134.306 989.103 129.223 990.099 124.165 991.069C119.617 991.937 115.07 992.83 111.009 995.179C108.403 996.686 106.359 992.473 108.965 990.967Z" fill="#E8EAFF"/>
<path d="M288.932 969.929C300.632 970.057 313.098 970.95 324.338 974.397C333.484 977.205 342.093 984.788 339.845 995.23C339.206 998.192 334.761 996.66 335.4 993.749C337.443 984.226 326.254 979.478 318.948 977.844C309.037 975.622 298.767 974.729 288.626 974.627C285.612 974.576 285.918 969.904 288.932 969.929Z" fill="#FF7E64"/>
<path d="M285.33 952.364C295.548 946.058 307.785 943.173 319.74 944.398C331.312 945.573 342.961 950.5 348.581 961.249C349.986 963.929 345.745 965.972 344.366 963.291C339.257 953.487 327.94 949.581 317.518 948.917C306.891 948.253 296.417 951.036 287.374 956.602C284.819 958.159 282.776 953.921 285.33 952.364Z" fill="#FF7E64"/>
<path d="M283.082 937.454C296.8 928.748 314.529 925.224 330.316 929.897C337.238 931.939 344.008 935.82 348.427 941.615C350.803 944.756 352.08 948.202 352.183 952.16C352.285 955.759 352.285 959.921 349.756 962.704C347.738 964.925 344.698 961.351 346.69 959.155C347.61 958.159 347.406 955.198 347.457 953.998C347.533 952.006 347.482 949.964 346.767 948.049C345.668 945.113 343.293 942.585 340.917 940.62C336.166 936.662 330.137 934.288 324.083 933.267C310.569 930.994 296.596 934.416 285.1 941.717C282.571 943.275 280.553 939.062 283.082 937.454Z" fill="#FF7E64"/>
<path d="M431.756 601.875C436.278 593.781 443.124 587.169 451.324 582.88C454.006 581.475 456.05 585.714 453.368 587.092C445.73 591.075 439.573 597.305 435.46 604.862C433.315 608.794 431.756 613.108 430.939 617.525C430.556 619.517 430.351 621.534 430.275 623.55C430.249 624.316 429.917 626.053 430.402 626.716C430.964 627.457 433.34 628.095 434.234 628.503C439.241 630.801 444.248 633.125 449.255 635.422C454.083 637.644 458.911 640.273 463.944 641.958C472.246 644.716 481.647 640.478 484.891 632.308C485.989 629.499 490.46 630.98 489.336 633.788C486.577 640.733 480.344 645.89 472.936 647.243C463.637 648.954 454.798 643.133 446.675 639.405L432.165 632.716C430.454 631.925 427.873 631.184 426.622 629.652C425.549 628.35 425.523 626.614 425.523 625.006C425.498 616.912 427.848 608.87 431.756 601.875Z" fill="#FF7E64"/>
<path d="M465.144 592.352C467.52 590.513 470.585 594.062 468.21 595.9C456.408 605.041 446.292 617.704 446.496 633.329C446.547 636.342 441.847 636.035 441.821 633.022C441.566 616.223 452.423 602.181 465.144 592.352Z" fill="#FF7E64"/>
<path d="M456.919 641.805C459.805 626.793 469.257 613.644 482.694 606.292C485.351 604.836 487.369 609.074 484.738 610.504C472.91 616.963 464.148 628.835 461.594 642.086C461.364 643.337 460.47 644.358 459.09 644.282C457.966 644.231 456.663 643.031 456.919 641.805Z" fill="#FF7E64"/>
<path d="M116.27 599.628C117.139 598.888 118.876 598.811 119.591 599.883C123.806 606.266 127.995 612.649 132.21 619.006C132.9 620.053 133.002 621.406 131.955 622.325C131.086 623.065 129.349 623.142 128.634 622.07C124.419 615.687 120.23 609.304 116.015 602.947C115.325 601.875 115.223 600.522 116.27 599.628Z" fill="#D4D4FF"/>
<path d="M75.4235 620.844C90.5975 625.082 105.771 629.32 120.92 633.533C123.832 634.35 122.325 638.792 119.438 637.975L73.9419 625.287C71.0297 624.495 72.5369 620.053 75.4235 620.844Z" fill="#D4D4FF"/>
<path d="M100.177 647.473C104.647 650.562 111.212 650.869 115.811 647.83C116.858 647.141 118.212 647.039 119.131 648.086C119.872 648.954 119.949 650.69 118.876 651.405C112.464 655.617 103.932 655.771 97.5455 651.379C95.0676 649.669 97.6988 645.762 100.177 647.473Z" fill="#D4D4FF"/>
<path d="M200.009 597.177C209.026 584.641 221.058 573.331 236.258 569.016C245.097 566.514 254.497 567.204 262.723 570.804C268.522 566.642 276.901 567.255 283.721 567.28C292.381 567.331 301.092 567.842 309.573 569.757C318.821 571.876 327.404 576.012 333.995 582.905C336.09 585.075 332.513 588.139 330.444 585.969C317.927 572.872 298.206 571.927 281.218 571.952C276.799 571.952 271.843 571.646 267.653 573.408C270.157 574.965 272.507 576.829 274.602 578.999C279.864 584.437 282.904 591.484 282.878 599.066C282.878 600.062 281.959 601.083 280.988 601.211C273.094 602.334 264.307 599.909 259.606 593.067C255.877 587.654 255.596 579.944 259.249 574.429C255.213 572.872 250.895 572.003 246.757 572.055C228.799 572.233 213.752 586.045 203.866 599.756C202.155 602.258 198.246 599.653 200.009 597.177ZM261.344 583.467C261.369 592.428 270.055 597.1 278.101 596.82C277.361 587.884 271.357 580.735 263.617 576.471C262.084 578.412 261.318 580.863 261.344 583.467Z" fill="#D4D4FF"/>
<path d="M53.2749 759.222C55.0887 755.852 58.9971 754.014 62.7523 754.703C67.2483 755.52 71.2078 759.018 71.9487 763.639C72.153 764.839 71.3866 766.192 70.0838 766.396C69.7262 766.447 69.343 766.396 68.9854 766.294C68.3467 769 66.3286 771.247 63.6208 772.319C60.1211 773.698 55.855 773.136 53.5815 769.868C51.359 766.677 51.4612 762.567 53.2749 759.222ZM56.7235 765.707C56.979 766.447 57.1323 766.703 57.26 766.958C57.3622 767.111 57.4644 767.239 57.5921 767.366C58.0008 767.749 58.1285 767.826 58.2307 767.903C58.7672 768.132 58.9716 768.234 59.1248 768.26C60.632 768.286 60.8364 768.26 61.0152 768.209C61.194 768.183 61.3473 768.132 61.5005 768.081C61.8837 767.903 62.1903 767.775 62.4968 767.596C62.6757 767.443 62.9822 767.264 63.0333 767.239C63.2376 767.086 63.4931 766.728 63.723 766.6C63.8763 766.396 63.9784 766.269 64.0551 766.115C64.1317 766.013 64.3361 765.554 64.2084 765.911C64.0551 766.294 64.2595 765.783 64.3105 765.681C64.3872 765.503 64.4383 765.324 64.4894 765.145C64.5149 764.941 64.5149 764.788 64.5404 764.609C64.4383 763.256 65.0514 762.107 66.1754 761.801C66.0732 761.673 65.9455 761.571 65.8688 761.469C65.7666 761.341 65.6389 761.213 65.5367 761.111C64.9492 760.601 64.7704 760.473 64.5915 760.345C64.3105 760.167 64.0296 760.013 63.723 759.835C63.4931 759.733 63.3143 759.656 63.1355 759.605C62.8289 759.503 62.4968 759.401 62.1903 759.324C61.8582 759.273 61.6794 759.248 61.475 759.248C61.3217 759.248 61.1429 759.222 60.9896 759.222C60.7086 759.12 60.0955 759.35 59.8656 759.401C59.6102 759.503 59.4569 759.554 59.2781 759.63C59.1504 759.682 59.0226 759.758 58.8694 759.835C58.5884 760.065 58.3585 760.218 58.1286 760.422C58.0519 760.499 57.7709 760.856 57.9753 760.55C58.1796 760.218 57.8731 760.677 57.7964 760.754C57.5921 761.009 57.4133 761.264 57.26 761.545C56.9279 762.26 56.8258 762.541 56.7491 762.822C56.698 762.975 56.6725 763.103 56.6469 763.256C56.5958 763.639 56.5703 763.945 56.5447 764.277C56.6214 765.12 56.6725 765.401 56.7235 765.707Z" fill="#D4D4FF"/>
<path d="M387.486 639.15C387.793 632.384 390.015 625.797 393.668 620.104C395.303 617.576 399.212 620.18 397.551 622.733C394.077 628.095 392.161 634.299 392.11 640.682C392.059 645.737 394.154 653.575 400.693 653.141C407.029 652.707 410.247 645.686 412.725 640.809C415.842 634.708 419.316 628.835 423.173 623.168C424.859 620.665 428.768 623.295 427.056 625.797C423.454 631.108 420.133 636.597 417.196 642.316C414.564 647.396 412.087 652.707 407.054 655.796C402.303 658.732 396.529 658.426 392.417 654.596C388.227 650.639 387.256 644.614 387.486 639.15Z" fill="white"/>
</g>
<g opacity="0.1">
<path d="M1882.71 1058.85C1842 1097.28 1791.18 1122.71 1736.79 1132.53C1720.06 1135.56 1702.98 1137.12 1685.77 1137.12C1625.09 1137.12 1568.61 1117.86 1522.01 1085.21C1447.72 1033.13 1398.79 946.868 1398.79 850.071C1398.79 823.507 1402.5 797.056 1409.75 771.511L1685.74 850.071L1882.71 1058.85Z" fill="#D4D4FF"/>
<path d="M1894.77 701.844C1902.28 707.281 1908.39 712.775 1913.43 718.553C1918.44 724.245 1922.44 730.362 1925.52 736.791C1944.01 775.448 1930.33 825.942 1918.16 867.148C1917.59 873.378 1917.48 879.58 1917.48 885.867C1917.48 943.47 1917.48 1009.85 1917.48 1064.88C1917.48 1069.89 1917.48 1074.79 1917.48 1079.58C1916.52 1111.72 1929.12 1153.75 1912.3 1173.71C1898.65 1188.44 1863.97 1160.06 1835.6 1161.11C1812.5 1162.16 1792.54 1183.17 1767.31 1178.98C1733.67 1171.62 1702.16 1155.87 1668.27 1164.65C1663.06 1169.95 1657.77 1174.39 1652.33 1178.1C1636.05 1189.23 1618.81 1193.71 1600.94 1194.19C1593.02 1194.41 1584.95 1193.82 1576.82 1192.71C1531.95 1189.51 1488.85 1157.99 1443.92 1170.12C1438.54 1171.79 1433.56 1174.14 1428.72 1176.77C1414.28 1184.78 1400.6 1195.29 1384.86 1201.07C1354.4 1211.58 1312.35 1201.07 1300.8 1180.06C1280.84 1147.49 1294.49 1100.19 1297.35 1058.28C1298.22 1053.24 1299.87 1048.99 1301.88 1045.39C1307.11 1036.1 1313.43 1026.65 1309.21 1016.14C1306.89 1009.63 1304.88 1003.06 1303.12 996.485C1301.37 989.887 1299.87 983.26 1298.71 976.916C1292.39 937.353 1289.25 896.346 1290.04 855.027C1289.98 848.088 1289.87 841.292 1289.67 834.523C1289.48 827.755 1289.22 820.986 1288.88 814.246C1288.31 808.355 1287.75 802.436 1287.15 796.546C1285.06 783.944 1280.84 768.169 1289.25 760.806C1293.44 755.539 1307.11 759.758 1316.57 757.663C1331.29 753.726 1345.93 750.752 1360.51 748.685C1367.82 747.637 1375.09 746.816 1382.37 746.193C1387.47 746.703 1392.45 747.269 1397.32 747.864C1404.2 748.997 1410.97 749.676 1417.73 750.016C1424.47 750.356 1431.18 750.413 1437.78 750.328C1444.54 750.328 1451.34 750.271 1458.19 750.186C1465.01 750.101 1471.75 750.101 1477.92 750.696C1496.24 752.452 1510.94 762.958 1526.71 770.322C1529.85 772.417 1535.12 774.513 1538.26 772.417C1545.22 767.943 1552.3 763.921 1559.47 760.296C1579.6 751.8 1601 747.014 1622.29 746.363C1629.4 746.136 1636.45 746.958 1643.41 751.319C1694.8 801.842 1777.81 799.718 1831.41 756.643C1846.13 744.041 1821.95 724.075 1821.95 707.253C1823 683.068 1855.59 690.431 1871.76 696.973C1886.79 700.088 1894.77 701.844 1894.77 701.844Z" fill="#D9EDF8"/>
<path d="M1293.61 1131.06C1314.45 1144.32 1340.72 1162.19 1365.92 1152.73C1372.23 1150.26 1378.52 1147.35 1384.86 1144.29C1391.2 1141.26 1397.54 1138.09 1404.17 1135.48C1452.07 1110.7 1498.31 1138 1544.54 1153.77C1550.86 1156.92 1558.19 1154.82 1564.5 1152.73C1588.15 1141.34 1606.69 1121.21 1631.04 1113.81C1635.91 1112.34 1641.03 1111.38 1646.47 1111.15C1672.72 1111.72 1696.87 1125.4 1723.14 1129.59C1743.1 1131.68 1767.28 1138 1781.98 1122.23C1793.53 1110.67 1791.43 1091.75 1807.2 1081.25C1825.07 1069.69 1847.12 1072.84 1860.8 1087.56C1877.62 1103.34 1894.43 1119.08 1917.54 1123.3C1917.54 1121.21 1917.54 1119.11 1916.49 1119.11C1886.02 1110.7 1869.21 1084.42 1843.98 1069.72C1814.56 1053.95 1790.38 1098.1 1769.38 1115.97C1745.2 1138.03 1710.54 1131.74 1684.27 1112.82C1671.67 1103.36 1656.95 1097.05 1641.6 1096.85C1634.89 1096 1627.53 1097.05 1622.29 1101.27C1596.02 1123.33 1564.5 1163.26 1529.82 1143.3C1492 1120.19 1447.86 1122.28 1408.16 1128.06C1401.65 1129.42 1395.56 1131.54 1389.67 1134.23C1383.81 1136.98 1377.98 1140.01 1372.2 1143.3C1345.93 1158.02 1316.51 1142.25 1293.92 1125.62L1293.61 1131.06Z" fill="#ECF9FF"/>
<path d="M1294.66 1108.21C1320.76 1125.4 1353.35 1141.17 1383.81 1124.35C1389.19 1121.32 1394.83 1119 1401.08 1117.78C1447.91 1109.62 1495.2 1116.99 1541.43 1131.68C1575.07 1142.19 1587.66 1094.9 1613.94 1078.07C1619.21 1073.88 1629.71 1078.08 1638.26 1082.04C1672.77 1092.77 1706.38 1127.47 1743.16 1104.33C1770.48 1087.51 1786.25 1062.3 1813.54 1047.57C1841.91 1031.8 1865.02 1067.54 1883.93 1085.41C1893.39 1092.77 1904.94 1102.23 1915.44 1099.06C1919.63 1098.01 1917.54 1087.51 1917.54 1080.14C1882.85 1080.14 1871.3 1037.04 1842.93 1024.44C1803.01 1004.47 1769.38 1057 1739.96 1081.19C1718.95 1099.06 1691.63 1095.92 1669.57 1084.33C1655.93 1076.97 1648.57 1062.27 1643.3 1048.65C1641.2 1044.4 1635.97 1044.4 1630.81 1043.98C1621.84 1044.18 1613.66 1046.92 1606.69 1051.43C1599.73 1055.93 1593.95 1062.24 1589.73 1069.61C1579.23 1088.53 1569.77 1116.9 1550.86 1113.76C1498.34 1106.4 1446.84 1101.16 1394.15 1103.48C1386.73 1104.07 1379.88 1105.89 1373.31 1108.52C1345.99 1120.07 1320.79 1098.01 1295.45 1086.32L1294.66 1108.21Z" fill="#ECF9FF"/>
<path d="M1295.79 1064.88C1314.5 1074.03 1333.39 1087.53 1354.48 1090.62C1361.53 1091.64 1368.81 1091.53 1376.48 1089.8C1432.11 1090.73 1486.73 1090.73 1543.47 1099.15C1548.74 1100.19 1552.93 1097.05 1557.12 1093.88C1580.22 1068.64 1585.49 1032.93 1614.9 1015.06C1619.09 1011.38 1625.75 1008.75 1632.46 1010.62C1638.01 1011.92 1643.27 1014.02 1646.41 1019.28C1655.87 1041.34 1666.37 1085.49 1696.84 1072.89C1725.21 1061.34 1747.26 1040.32 1773.54 1025.6C1798.77 1011.95 1829.23 982.495 1856.55 1005.63C1869.15 1016.14 1874.42 1030.87 1883.87 1044.2C1888.23 1049.67 1892.96 1054.4 1898.45 1056.98C1910.63 1058.53 1917.4 1058.53 1917.4 1058.53V1050.6C1917.4 1050.6 1911.51 1050.6 1900.8 1049.95C1896.76 1048.17 1892.85 1045.05 1889.05 1041.23C1885.26 1037.41 1881.55 1032.82 1877.93 1027.72C1874.67 1022.2 1871.13 1015.63 1867.17 1009.26C1859.21 996.542 1849.56 984.676 1837.24 983.798C1830.99 983.316 1824.08 985.582 1815.78 991.614C1774.61 1020.33 1732.6 1048.71 1683.19 1062.36C1661.14 1068.67 1660.09 1033.98 1649.5 1017.73C1646.73 1012.88 1643.53 1008.46 1639.53 1004.78C1635.57 1001.13 1630.81 998.241 1624.92 996.485C1616.71 995.607 1609.1 998.751 1605.33 1005.41C1585.49 1024.52 1582.31 1053.95 1562.35 1069.72C1507.71 1113.87 1432.06 1083.37 1369.52 1079.86C1363.03 1079.18 1356.63 1078.24 1350.29 1076.97C1331.29 1073.18 1312.95 1066.66 1295.76 1057.32L1295.79 1064.88Z" fill="#ECF9FF"/>
<path d="M1297.91 1045.85C1322.86 1051.82 1336.53 1075.98 1358.59 1087.53C1362.78 1089.63 1368.04 1091.73 1372.23 1091.73C1452.08 1107.7 1550.91 1096.17 1581.29 1007.59C1582.91 1002.91 1584.83 998.213 1587.55 993.596C1593.36 987.508 1601.76 982.863 1610.71 980.824C1621.22 981.391 1631.72 981.391 1638.03 990.849C1640.84 994.871 1643.81 998.921 1646.98 1002.8C1650.15 1006.71 1653.46 1010.48 1657 1013.96C1675.89 1041.29 1712.64 1045.48 1738.91 1022.37C1757.82 1004.5 1775.69 982.438 1801.57 973.631C1808.79 971.139 1816.66 969.808 1825.07 968.76C1830.33 967.712 1829.26 959.301 1830.33 952.986C1831.38 945.622 1838.74 941.431 1843.98 946.67C1864.99 970.856 1867.08 1005.52 1889.96 1026.36C1894.04 1030.47 1898.11 1033.78 1902.22 1035.62C1912.04 1035.71 1917.45 1035.71 1917.45 1035.71V1009.8C1917.45 1009.8 1912.89 1009.8 1904.57 1009.74C1899.73 1007.81 1895.4 1005.18 1891.4 1002.06C1887.36 998.779 1883.84 995.154 1880.79 991.246C1860.8 966.636 1862.89 924.581 1833.48 914.074C1811.93 906.711 1799.33 920.389 1788.83 939.307C1785.32 945.622 1782.06 952.504 1778.78 959.386C1765.19 990.793 1734.72 1024.44 1696.9 1019.17C1684.3 1018.12 1674.84 1009.71 1667.34 999.204C1663.71 995.267 1660.34 991.048 1656.95 986.913C1653.55 982.778 1650.12 978.7 1646.44 975.019C1630.67 959.244 1607.57 955.053 1586.02 961.85C1579.94 964.314 1574.3 967.712 1569.54 972.158C1564.79 976.604 1560.91 982.07 1558.33 988.612C1556.21 993.993 1553.55 999.176 1550.35 1004.05C1537.49 1023.59 1515.78 1038.77 1498.28 1054.88C1495.14 1056.98 1495.14 1063.29 1490.92 1065.39C1455.19 1083.26 1413.17 1083.26 1375.01 1069.18C1367.62 1066.61 1360.65 1064 1354.28 1061.28C1341.51 1055.87 1329.68 1047.89 1319.37 1036.44C1314.42 1034.52 1309.38 1032.96 1304.54 1031.55L1297.91 1045.85Z" fill="#ECF9FF"/>
<path d="M1306.15 1023.96C1310.6 1026.11 1315.15 1028.06 1319.71 1029.87C1328.63 1035.09 1337.3 1042.68 1346.64 1048.42C1351.31 1051.31 1356.21 1053.86 1361.64 1055.82C1399.56 1065.5 1443.69 1061.28 1474.16 1036.08C1492.53 1020.84 1510.4 1006.11 1529.45 994.333C1535.8 990.396 1542.28 986.8 1549.13 983.713C1562.66 981.561 1576 978.7 1589.31 975.67C1595.96 974.169 1602.59 972.611 1609.66 971.648C1629.65 971.96 1651.74 968.788 1670.65 980.343C1676.96 984.024 1681.69 989.802 1686.53 995.551C1694.83 1008.72 1710.57 1019.23 1727.39 1011.89C1743.16 1005.58 1754.71 992.973 1761.56 978.275C1763.06 973.291 1764.45 968.109 1766.01 962.813C1773.37 936.362 1784.75 907.759 1802.64 896.714C1806.95 894.08 1811.62 892.437 1816.69 892.069C1827.28 891.021 1835.26 895.581 1841.83 903.227C1855.02 918.52 1862.36 946.189 1871.76 966.126C1874.13 970.459 1876.74 974.565 1879.74 978.332C1882.77 982.099 1886.19 985.582 1890.22 988.725C1907.83 996.117 1917.45 996.117 1917.45 996.117V985.554C1917.45 985.554 1908.34 985.554 1891.43 980.484C1887.38 977.143 1883.79 973.518 1880.56 969.666C1877.33 965.815 1874.45 961.736 1871.81 957.488C1862.64 943.725 1856.21 922.938 1846.67 906.739C1843.53 901.358 1840.02 896.459 1836.05 892.522C1826.14 884.763 1814.56 880.571 1803.27 883.772C1795.25 885.329 1788.32 889.747 1782.8 895.808C1777.28 901.84 1773.09 909.458 1770.45 917.359C1768.19 923.136 1766.15 930.188 1764.2 937.778C1762.21 945.368 1760.26 953.524 1758.14 961.538C1751.57 981.476 1742.11 1015.09 1716.88 1011.95C1700.07 1008.8 1690.61 993.03 1676.85 984.081C1671.5 980.116 1666.03 976.293 1660.46 972.923C1643.7 962.813 1625.69 956.752 1604.91 963.577C1598.25 964.937 1592.22 967.061 1586.31 968.986C1574.44 972.81 1562.89 975.727 1552.19 975.557C1544.77 977.737 1538.43 980.683 1532.68 984.053C1515.41 994.106 1498.34 1004.07 1479.43 1010.9C1474.16 1013 1467.87 1011.95 1462.61 1014.04C1451.06 1019.31 1447.89 1032.96 1437.38 1041.37C1433.19 1044.52 1426.88 1042.42 1423.73 1044.52C1399.56 1058.17 1373.31 1053.97 1350.43 1044.09C1345.14 1041.8 1340.18 1039.11 1335.43 1035.88C1330.7 1032.65 1326.2 1028.91 1322.03 1024.75C1316.54 1022.45 1311.3 1020.13 1306.24 1017.56L1306.15 1023.96Z" fill="#ECF9FF"/>
<path d="M1294.12 953.467C1297.88 955.988 1301.96 958.536 1306.21 960.802C1310.54 963.492 1314.98 965.9 1319.51 967.967C1323.87 969.864 1328.09 973.008 1333.33 973.008C1389.42 967.485 1443.89 937.041 1500.26 949.219C1508.3 950.947 1516.49 953.665 1525.15 957.97C1541.06 962.36 1556.1 961.142 1570.51 956.724C1575.32 955.251 1580.05 953.41 1584.83 951.4C1594.86 948.794 1604.23 944.829 1613.4 940.412C1617.99 938.203 1622.52 935.852 1627.05 933.53C1648.54 926.761 1672.72 902.604 1692.14 920.474C1699.25 924.411 1706.32 928.885 1714.73 928.885C1717.88 928.885 1722.09 927.837 1723.14 925.742C1752.56 880.543 1810.34 883.715 1848.09 909.628C1853.83 912.8 1859.24 916.085 1864.51 919.795C1869.74 923.476 1874.84 927.583 1879.68 932.057C1883.87 935.201 1888.09 936.249 1893.53 937.155C1898.62 937.155 1902.96 937.155 1906.49 937.155C1913.57 937.155 1917.42 937.155 1917.42 937.155V929.763C1917.42 929.763 1912.78 929.763 1904.29 929.763C1900.04 929.763 1894.83 929.763 1888.77 929.225C1880.14 919.993 1869.94 912.12 1858.99 905.974C1853.49 902.916 1847.83 900.282 1841.94 897.988C1830.28 888.954 1813.49 884.763 1799.19 887.482C1792.03 888.105 1784.95 889.662 1777.9 891.786C1756.75 898.158 1735.74 909.429 1714.7 915.235C1709.27 916.821 1703.58 917.501 1697.74 917.727C1691.88 917.954 1686.19 917.529 1681.21 916.708C1655.87 909.996 1631.72 920.503 1610.71 933.105C1605.98 937.834 1599.95 940.723 1593.41 942.96C1586.87 945.198 1579.85 946.755 1573.14 948.851C1567.7 950.663 1562.18 951.994 1556.61 952.759C1545.45 954.26 1534.01 953.439 1522.46 949.361C1514.22 945.056 1506.52 942.026 1499.16 940.157C1447.63 927.073 1398.9 946.387 1350.18 965.701C1335.45 970.969 1320.76 961.51 1307.62 954.373C1302.73 951.683 1298.05 948.936 1293.61 946.161L1294.12 953.467Z" fill="#ECF9FF"/>
<path d="M1292.42 922.74C1299.24 927.894 1306.58 933.643 1314.42 938.401C1355.42 962.501 1394.32 920.446 1433.19 909.939C1452.1 904.417 1468.64 909.543 1485.06 916.453C1490.52 918.747 1495.99 921.239 1501.51 923.674C1511.48 929.961 1522.77 932.822 1533.93 932.68C1539.51 932.624 1545.05 931.774 1550.41 930.273C1557.03 926.28 1563.88 922.825 1573.71 920.672C1606.58 917.302 1634.95 902.604 1667.51 894.193C1673.82 893.145 1679.85 893.4 1685.74 894.675C1691.63 895.949 1697.35 898.243 1703.04 901.245C1710.6 902.604 1719.01 906.796 1723.2 903.652C1728.1 899.631 1733.08 895.666 1738.18 891.814C1743.24 887.963 1748.42 884.253 1753.66 880.741C1758.39 878.079 1763.43 875.219 1768.84 872.387C1793.58 859.53 1824.05 843.784 1851.37 859.53C1856.64 862.673 1859.78 868.45 1863.23 874.426C1866.69 880.373 1870.45 886.519 1876.91 890.398C1883.7 895.043 1890.24 900.395 1896.53 906.824C1898.62 907.872 1901.8 906.824 1903.95 906.966C1912.7 906.966 1917.48 906.966 1917.48 906.966V879.439C1917.48 879.439 1910.97 879.439 1899.59 878.108C1882.34 867.318 1888.66 851.005 1890.24 834.665C1890.78 829.227 1890.78 823.761 1889.2 818.522C1839.82 836.392 1784.13 835.344 1739.68 866.043C1735.77 869.357 1731.92 872.444 1727.78 874.964C1723.79 877.513 1719.52 879.467 1714.79 880.543C1701.14 883.687 1687.47 874.228 1672.77 875.276C1665.3 876.72 1657.85 878.306 1650.46 879.948C1598.68 891.446 1548.79 905.351 1497.32 887.878C1489.96 884.734 1482.6 887.878 1475.38 888.586C1468.3 889.69 1461.22 891.021 1454.2 892.494C1419.06 899.942 1384.75 911.78 1351.25 923.589C1334.44 928.857 1318.69 915.178 1305.67 903.652C1300.6 899.829 1295.82 895.751 1291.34 892.069C1291.34 897.337 1291.34 901.528 1291.85 907.22C1292.14 914.924 1292.42 922.74 1292.42 922.74Z" fill="#ECF9FF"/>
<path d="M1292.96 890.965C1300.04 897.309 1308.56 897.847 1317.28 897.054C1366.29 900.962 1403.77 871.679 1445.48 853.044C1451.45 850.411 1457.62 848.315 1464.14 846.927C1473.11 844.775 1482.57 843.727 1490.95 847.918C1532.96 866.836 1580.25 885.754 1627.53 873.152C1634.64 871.056 1640.92 867.827 1646.53 863.778C1657.99 857.406 1668.53 852.138 1681.13 850.042C1687.95 848.995 1691.86 845.256 1696.27 841.716C1703.18 835.316 1713.69 832.173 1723.14 831.125C1783.02 827.981 1854.48 832.173 1897.55 782.782C1898.6 780.687 1903.86 780.687 1907 782.782C1913.32 789.098 1913.32 797.509 1912.27 805.892C1910.18 819.542 1901.77 834.268 1908.08 845.823C1914.39 856.329 1924.9 848.966 1924.9 837.412C1922.8 837.412 1918.58 837.412 1918.58 836.364C1913.32 814.303 1926.99 788.022 1908.08 771.2C1903.89 768.056 1896.53 770.123 1894.43 774.173C1855.53 830.049 1774.64 823.733 1714.76 821.637C1696.9 821.637 1680.08 827.953 1663.97 835.967C1659.44 838.658 1654.82 841.292 1650.32 844.067C1645.79 846.871 1641.37 849.844 1637.21 853.299C1631.89 856.414 1627.02 859.331 1621.75 861.54C1616.49 863.749 1610.74 865.222 1604.45 865.732C1563.49 868.875 1523.57 860.464 1486.79 837.355C1476.28 829.992 1462.61 833.164 1449.95 836.166C1444.12 837.78 1438.4 839.819 1432.74 842.113C1410.09 851.317 1388.32 863.976 1368.07 880.43C1354.42 891.984 1337.61 881.478 1322.12 882.129C1315.3 882.016 1308.19 883.064 1300.83 884.65C1296.64 885.697 1295.56 879.382 1291.63 877.853L1292.96 890.965Z" fill="#ECF9FF"/>
<path d="M1289.42 851.487C1295.7 853.866 1302.16 855.225 1308.78 855.735C1315.41 856.245 1322.15 855.933 1328.86 855.14C1340.72 855.31 1351.23 854.262 1361.73 848.995C1380.76 839.337 1400.38 832.003 1420.36 826.565C1427.02 824.753 1433.73 823.138 1440.5 821.751C1453.15 819.57 1466.8 817.474 1477.3 822.742C1514.08 842.708 1548.73 864.769 1592.87 854.262C1598.14 852.959 1604.11 851.373 1610.03 849.363C1624.39 843.755 1650.66 840.612 1647.52 820.646C1646.47 811.187 1637.01 803.824 1640.16 793.317C1642.25 788.05 1647.52 788.05 1650.66 790.174C1687.44 806.996 1726.31 824.866 1768.33 820.646C1776.74 819.598 1784.1 813.283 1792.51 813.283C1835.57 812.235 1876.57 795.413 1896.53 754.434C1898.62 751.291 1904.94 755.482 1910.18 757.578C1918.05 763.355 1922.27 771.228 1924.5 779.922C1926.74 788.588 1926.99 798.047 1926.99 806.996C1926.99 808.044 1931.18 811.187 1931.18 810.14C1937.5 789.126 1941.69 765.989 1929.09 748.119C1925.95 744.182 1921.22 740.359 1915.72 737.272C1899.67 733.421 1875.49 710.283 1868.16 723.962C1858.7 741.832 1872.35 774.4 1847.15 784.906C1818.78 796.461 1789.37 796.461 1759.95 805.92C1717.93 820.646 1677.98 790.146 1640.04 772.219C1634.15 771.143 1628.58 772.077 1623.2 773.635C1601.65 779.865 1582.74 795.753 1570.82 815.35C1567.31 821.666 1563.26 825.829 1558.79 828.321C1536.45 840.753 1503.92 810.989 1479.4 794.337C1467.85 785.926 1454.17 790.146 1440.52 790.542C1434.38 791.278 1428.26 792.015 1422.12 792.694C1403.69 794.733 1385.23 796.206 1366.68 794.932C1359.86 794.875 1352.98 794.677 1345.99 794.309C1332.34 793.261 1320.76 805.863 1305.87 806.939C1300.21 807.591 1293.98 807.987 1287.15 807.987C1287.15 814.303 1288.17 820.675 1288.57 827.868C1288.88 839.649 1289.42 851.487 1289.42 851.487Z" fill="#ECF9FF"/>
<path d="M1286.11 769.585C1286.08 774.371 1283.98 781.735 1287.12 784.878C1290.27 788.022 1297.63 786.974 1302.9 784.878C1309.35 782.697 1315.83 780.658 1322.29 778.761C1350.66 770.69 1379.62 767.037 1408.78 766.215C1416.06 766.017 1423.2 766.074 1430.13 766.329C1437.47 767.037 1444.8 767.716 1452.13 768.424C1484.66 769.104 1499.39 798.557 1524.58 813.255C1534.04 819.57 1547.69 820.618 1552.95 811.159C1556.52 803.909 1560.6 797.311 1565.07 791.363C1580.81 771.624 1604.26 759.447 1628.12 757.238C1634.1 756.7 1640.19 759.05 1646.64 763.1C1674.81 783.83 1707.4 805.892 1744.18 800.652C1774.64 796.461 1803.01 791.193 1833.48 783.83C1874.44 774.371 1845.03 732.345 1851.34 710.255C1857.66 691.337 1892.31 721.809 1915.44 722.857C1899.67 703.94 1873.43 700.796 1850.29 697.624C1842.93 695.529 1825.07 697.624 1828.24 704.987C1838.74 726.001 1859.75 757.521 1831.38 770.152C1768.33 799.576 1694.8 806.939 1644.38 751.63C1636.9 746.873 1629.43 746.306 1621.95 747.411C1599.53 750.696 1577.84 761.684 1560.68 776.354C1554.79 781.451 1549.07 786.776 1543.47 792.213C1537.15 797.481 1528.75 796.404 1522.46 792.213C1503.55 779.611 1490.95 757.521 1466.68 755.482C1459.15 754.604 1451.57 753.754 1444.01 752.905C1437.81 752.452 1431.58 752.084 1425.35 751.885C1406.66 751.291 1387.86 752.14 1368.86 755.822C1362.83 756.671 1356.75 757.634 1350.66 758.682C1332.43 761.854 1314.22 765.762 1296.04 769.812C1289.64 769.812 1286.11 769.585 1286.11 769.585Z" fill="#ECF9FF"/>
<path d="M1299.22 996.202C1304.03 998.807 1308.98 1001.44 1314.08 1004.02C1353.35 1043.41 1415.33 1046.55 1451.06 998.213C1454.2 995.069 1458.42 991.897 1463.66 991.897C1481.18 994.361 1495.99 991.303 1509.21 985.016C1515.84 981.872 1522.04 977.879 1528.01 973.376C1541.54 966.353 1555.13 959.159 1569.01 953.467C1573.65 951.57 1578.32 949.842 1583.14 948.454C1624.39 938.316 1664.31 955.11 1705.28 964.569C1725.24 969.836 1747.29 969.836 1762.02 953.014C1777.79 934.096 1792.48 917.274 1810.35 900.48C1814.54 895.213 1817.93 886.83 1823.28 884.734C1831.89 882.61 1838.74 892.069 1845.03 898.356C1849.5 904.134 1853.1 910.307 1856.38 916.566C1866.26 935.371 1873.23 955.025 1891.66 967.4C1897.69 969.949 1902.25 969.949 1905.96 969.949C1913.38 969.949 1917.42 969.949 1917.42 969.949V957.885C1917.42 957.885 1908.87 957.885 1893.78 957.828C1876.12 946.302 1868.13 928.064 1858.17 910.789C1854.85 905.04 1851.29 899.376 1847.1 894.137C1838.69 875.219 1817.68 869.951 1802.33 883.687C1797.97 887.397 1793.87 892.041 1789.96 897.167C1778.27 912.545 1767.76 931.972 1756.75 942.479C1744.15 956.129 1726.28 963.492 1708.42 959.301C1661.14 947.746 1615.95 923.561 1567.42 943.867C1560.77 946.189 1554.2 948.681 1547.69 951.343C1541.18 953.977 1534.75 956.781 1528.41 959.641C1522.06 962.841 1516.4 966.041 1510.48 967.684C1498.62 970.997 1485.65 968.08 1470.96 954.062C1469.91 951.966 1464.65 957.205 1461.5 960.377C1444.69 983.486 1429.99 1007.67 1402.67 1018.18C1370.11 1030.78 1334.38 1015.03 1310.17 993.257C1305.25 990.396 1300.6 987.621 1296.16 984.874L1299.22 996.202Z" fill="#ECF9FF"/>
<path d="M1685.15 809.516L1572.26 545.631C1607.94 530.366 1646.36 522.493 1685.17 522.493C1842.59 522.493 1972.15 652.057 1972.15 809.545C1972.15 888.388 1939.68 963.86 1882.4 1018.06L1685.15 809.516Z" fill="#0070BA"/>
<path d="M1585.8 760.353L1322.86 684.172C1334.66 643.448 1355.33 605.811 1383.39 574.036C1411.48 542.232 1446.24 517.056 1485.2 500.319L1593.3 751.885C1595.37 756.728 1590.86 761.826 1585.8 760.353Z" fill="url(#paint0_linear_304_1397)"/>
<path d="M1754.6 778.11C1754.6 795.3 1740.67 809.233 1723.48 809.233C1706.3 809.233 1692.37 795.3 1692.37 778.11C1692.37 760.919 1706.3 746.986 1723.48 746.986C1740.67 746.986 1754.6 760.919 1754.6 778.11Z" fill="#1A1A1A"/>
<path d="M1730.02 887.283C1720.48 874.369 1709.21 852.223 1707.14 840.555C1703.92 822.572 1718.67 807.817 1704.85 780.177C1693.36 757.181 1660.2 746.788 1642.62 752.055C1610.37 761.741 1620.03 788.475 1620.03 791.703C1620.03 791.703 1581.32 870.546 1595.14 888.048C1608.96 905.578 1719.12 941.516 1729.26 928.602C1739.39 915.716 1742.31 903.879 1730.02 887.283Z" fill="#1A1A1A"/>
<path d="M1741.12 885.641C1736.7 877.286 1728.61 872.727 1721.58 866.836C1714.65 861.002 1710.6 853.299 1708.73 844.463C1706.66 834.693 1707.06 824.526 1707.54 814.614C1707.68 811.499 1702.84 811.839 1702.67 814.926C1701.91 830.558 1701.48 847.975 1710.37 861.625C1715.13 868.96 1722.46 873.265 1729.03 878.759C1735.97 884.564 1740.33 892.466 1740.16 901.67C1740.02 911.44 1734.3 920.219 1725.94 925.034C1723.23 926.591 1725.97 930.641 1728.66 929.083C1743.81 920.333 1749.27 901.075 1741.12 885.641Z" fill="#1A1A1A"/>
<path d="M1676.14 802.408C1676.14 820.929 1661.14 835.967 1642.59 835.967C1624.08 835.967 1609.04 820.958 1609.04 802.408C1609.04 783.887 1624.05 768.849 1642.59 768.849C1661.14 768.849 1676.14 783.887 1676.14 802.408Z" fill="#FFC89E"/>
<path d="M1695.57 791.986C1698.26 813.368 1683.14 832.881 1661.76 835.571C1640.38 838.261 1620.88 823.138 1618.19 801.757C1615.5 780.375 1630.62 760.863 1651.99 758.172C1673.37 755.482 1692.88 770.633 1695.57 791.986Z" fill="#FFC89E"/>
<path d="M1418.13 858.368C1420.82 879.75 1405.7 899.263 1384.32 901.953C1362.95 904.643 1343.44 889.52 1340.75 868.139C1338.06 846.757 1353.18 827.245 1374.55 824.554C1395.9 821.864 1415.41 837.015 1418.13 858.368Z" fill="#0070BA"/>
<path d="M1841.4 1029.7C1844.21 1051.99 1828.44 1072.35 1806.13 1075.16C1783.84 1077.96 1763.49 1062.19 1760.68 1039.87C1757.88 1017.58 1773.65 997.221 1795.96 994.418C1818.24 991.614 1838.6 1007.39 1841.4 1029.7Z" fill="#0070BA"/>
<path d="M1660.09 895.864C1660.54 897.252 1625.07 876.946 1623.23 876.04C1622.26 875.559 1622.8 862.107 1623.37 848.683C1623.57 844.265 1623.79 839.847 1623.93 835.882C1624.02 834.636 1624.05 833.419 1624.08 832.314C1624.13 831.719 1624.13 831.181 1624.16 830.643C1624.3 825.999 1624.36 822.629 1624.13 821.666L1664.25 812.433C1664.25 812.433 1659.64 894.477 1660.09 895.864Z" fill="#FFC89E"/>
<path d="M1736.79 1132.53C1720.06 1135.56 1702.98 1137.12 1685.77 1137.12C1625.09 1137.12 1568.61 1117.86 1522.01 1085.21C1523.31 1079.04 1524.56 1073.57 1525.55 1069.66C1530.13 1051.23 1542.14 1016.65 1544.46 1008.35L1679.03 1006.03C1679.03 1006.03 1685.49 1024.95 1687.33 1029.08C1689.17 1033.22 1696.73 1049.1 1710.37 1070.57C1721.1 1087.48 1731.24 1115.63 1736.79 1132.53Z" fill="#1A1A1A"/>
<path d="M1793.92 1075.04C1793.92 1075.04 1772.41 1071.36 1745.99 1051.09C1730.39 1039.11 1695.59 1005.12 1695.59 1005.12L1687.75 1031.86L1542.11 1016.65L1530.11 950.267L1529.17 864.514L1553.15 824.385C1557.29 824.838 1564.19 823.45 1587.72 839.139C1589.53 840.357 1591.71 841.688 1594.21 843.104C1594.38 852.308 1598.31 866.241 1616.74 876.493C1637.41 887.991 1669.29 888.501 1685.94 887.793C1696.92 893.032 1705.39 897.224 1708.93 899.546C1722.29 908.297 1826.91 1001.41 1831.98 1007.39C1837.1 1013.45 1793.92 1075.04 1793.92 1075.04Z" fill="#0070BA"/>
<path d="M1603.77 919.681C1601.99 905.493 1594.06 893.627 1583.05 886.264C1588.66 878.532 1591.46 868.762 1590.18 858.538C1587.49 837.157 1567.99 822.034 1546.61 824.724C1525.24 827.415 1510.12 846.927 1512.81 868.309C1513.97 877.428 1518.19 885.386 1524.3 891.333C1513.8 901.33 1507.96 916 1509.92 931.519C1513.17 957.432 1536.84 975.812 1562.78 972.526C1588.68 969.27 1607.03 945.594 1603.77 919.681Z" fill="#0070BA"/>
<path d="M1865.22 851.628C1866.69 852.988 1869.8 860.861 1854.6 873.293C1844.24 881.761 1813.57 901.387 1813.57 901.387C1813.57 901.387 1825.1 932.425 1832.12 961.906L1761.19 969.779C1758.14 940.978 1755.5 914.272 1755.5 914.272C1755.5 914.272 1751.82 894.901 1753.21 883.828C1754.82 870.999 1776.26 851.119 1780.87 846.502C1785.46 841.886 1791.91 822.062 1797.01 819.287C1802.08 816.511 1806.75 823.62 1804.37 833.56C1802.13 842.962 1796.81 848.57 1796.53 849.249C1797.12 848.853 1817 836.194 1830.65 826.65C1844.46 816.965 1861.08 820.193 1866.6 823.875C1872.12 827.641 1863.71 850.269 1865.22 851.628Z" fill="#FFC89E"/>
<path d="M1463.94 767.121C1461.22 776.637 1446.13 795.838 1436.28 816.908L1368.58 798.302C1382.99 773.154 1389.59 750.526 1389.59 750.526C1389.59 750.526 1365.3 722.546 1360.71 705.044C1356.1 687.514 1361.93 669.559 1368.41 665.396C1374.87 661.261 1394.2 667.237 1400.66 680.632C1407.11 693.999 1402.98 702.297 1408.96 710.113C1414.56 717.448 1417.34 721.979 1417.68 722.517C1417.51 721.498 1414.99 706.545 1416.77 697.228C1418.61 687.542 1420.93 681.992 1425.06 681.992C1429.23 681.992 1431.04 689.383 1431.04 700.428C1431.04 711.501 1436.14 731.325 1445.34 737.301C1454.57 743.276 1468.84 749.903 1463.94 767.121Z" fill="#FFC89E"/>
<path d="M1388.65 839.168C1402.02 836.874 1494.2 827.641 1509.86 825.347C1525.52 823.053 1550.41 824.413 1550.41 824.413L1529.2 919.37C1529.2 919.37 1421.81 908.778 1400.6 907.39C1379.4 906.003 1362.35 902.774 1354.51 890.795C1346.67 878.816 1355.9 869.13 1355.9 869.13L1388.65 839.168Z" fill="#0070BA"/>
<path d="M1686 887.821C1669.32 888.501 1637.47 887.991 1616.8 876.522C1598.4 866.27 1594.43 852.336 1594.26 843.132C1615.41 855.367 1658.56 874.794 1686 887.821Z" fill="#FFC89E"/>
<path d="M1702.3 806.6C1701.03 813.906 1699.33 821.128 1697.41 828.264C1697.24 828.859 1696.64 829.425 1695.96 829.227C1689.76 827.5 1683.93 824.668 1678.69 820.901C1669.12 813.991 1661.87 803.994 1658.62 792.638C1655.08 780.205 1656.07 766.612 1661.48 754.859C1662.07 753.528 1664 754.377 1663.74 755.652C1669.01 753.5 1675.29 755.397 1680.05 758.229C1685.32 761.372 1689.59 765.875 1693.53 770.52C1697.8 775.532 1701.51 780.602 1702.78 787.2C1704.09 793.601 1703.41 800.228 1702.3 806.6Z" fill="#1A1A1A"/>
<path d="M1693.75 827.415C1693.75 834.41 1688.09 840.102 1681.07 840.102C1674.08 840.102 1668.38 834.438 1668.38 827.415C1668.38 820.42 1674.05 814.727 1681.07 814.727C1688.09 814.756 1693.75 820.42 1693.75 827.415Z" fill="#FFC89E"/>
<path d="M1840.78 1035.57C1840.78 1035.57 1772.55 1039.28 1770.25 1040.15C1769.01 1040.66 1764.79 1003.79 1761.19 969.808L1832.12 961.935C1833.11 966.098 1834.01 970.232 1834.78 974.254C1844.46 1024.95 1840.78 1035.57 1840.78 1035.57Z" fill="#0070BA"/>
<path d="M1436.28 816.908C1421.41 848.768 1404.31 882.667 1404.31 882.667L1341.63 862.248C1341.63 853.951 1348.54 833.673 1364.19 806.005C1365.64 803.456 1367.11 800.907 1368.55 798.33L1436.28 816.908Z" fill="#0070BA"/>
<path d="M1635 775.221C1634.89 774.881 1634.69 774.513 1634.66 774.456C1634.52 774.286 1634.38 774.145 1634.24 773.975C1633.9 773.692 1633.53 773.522 1633.14 773.437C1632.74 773.38 1632.51 773.38 1632.26 773.38C1631.55 773.465 1631.18 773.522 1630.81 773.692C1630.56 773.805 1630.25 773.947 1629.99 774.116C1629.74 774.286 1629.51 774.513 1629.29 774.739C1628.41 776.014 1628.32 776.354 1628.24 776.637C1628.1 777.288 1628.1 777.6 1628.18 777.911C1628.21 778.223 1628.32 778.534 1628.52 778.818C1628.69 779.101 1628.92 779.327 1629.23 779.469C1629.48 779.667 1629.77 779.78 1630.08 779.837C1631.13 780.149 1631.44 780.177 1631.75 780.149C1632.03 780.12 1632.31 780.064 1632.6 779.979C1632.88 779.865 1633.16 779.724 1633.42 779.582C1633.67 779.441 1633.93 779.186 1634.1 779.016C1634.47 778.563 1634.64 778.336 1634.78 778.081C1634.92 777.826 1635 777.515 1635.06 777.26C1635.15 776.779 1635.15 776.524 1635.17 776.297C1635.15 775.787 1635.09 775.504 1635 775.221Z" fill="#1A1A1A"/>
<path d="M1642.73 771.171C1642.59 773.324 1642 775.419 1640.95 777.317C1637.16 784.34 1629.23 786.096 1621.98 787.257C1620.68 787.484 1619.46 786.209 1619.4 784.991C1619.32 783.575 1620.37 782.612 1621.67 782.414C1626.79 781.565 1633.05 780.573 1636.19 775.901C1637.04 774.626 1637.61 773.154 1637.81 771.653C1639.48 771.738 1641.21 771.681 1642.73 771.171Z" fill="#FF7E64"/>
<path d="M1654.68 787.767C1654.68 787.682 1654.57 787.2 1654.57 787.144C1654.51 786.974 1654.29 786.549 1654.26 786.464C1652.78 785.331 1652.56 785.246 1652.33 785.19C1652.08 785.133 1651.82 785.133 1651.57 785.133C1651.06 785.161 1650.8 785.218 1650.55 785.275C1650.15 785.388 1649.98 785.473 1649.81 785.558C1649.64 785.643 1649.47 785.699 1649.33 785.813C1648.91 786.152 1648.68 786.322 1648.48 786.549C1647.94 787.314 1647.8 787.512 1647.69 787.71C1647.55 787.993 1647.49 788.248 1647.43 788.446C1647.38 788.843 1647.35 789.069 1647.35 789.296C1647.38 789.636 1647.43 789.862 1647.49 790.089C1648 791.08 1648.17 791.25 1648.34 791.42C1648.54 791.59 1648.88 791.816 1648.99 791.845C1649.19 791.93 1649.56 792.043 1649.67 792.071C1650.66 792.128 1650.92 792.043 1651.14 791.986C1651.51 791.845 1651.74 791.731 1651.96 791.618C1652.76 791.023 1653.18 790.627 1653.61 790.231C1653.75 790.089 1653.89 789.947 1654 789.806C1654.54 788.956 1654.65 788.588 1654.68 788.475C1654.71 788.191 1654.74 787.993 1654.74 787.767C1654.68 787.795 1654.68 787.767 1654.68 787.767Z" fill="#1A1A1A"/>
<path d="M1626.09 796.178C1625.89 796.178 1625.69 796.178 1625.52 796.178C1625.12 796.121 1624.73 796.036 1624.33 795.951C1623.91 795.781 1623.51 795.583 1623.11 795.356C1622.72 795.073 1622.35 794.762 1622.01 794.422C1621.73 794.082 1621.47 793.714 1621.27 793.317C1621.07 792.893 1620.9 792.44 1620.82 791.986C1620.85 792.156 1620.88 792.326 1620.9 792.496C1620.76 791.816 1620.59 791.278 1620.06 790.797C1619.6 790.429 1618.89 790.146 1618.33 790.202C1617.71 790.259 1617.05 790.542 1616.63 791.052C1616.26 791.505 1615.92 792.185 1616.03 792.779C1616.29 794.082 1616.69 795.272 1617.42 796.404C1618.02 797.339 1618.81 798.188 1619.69 798.868C1621.61 800.341 1623.96 801.162 1626.4 800.992C1627.67 800.907 1628.8 799.718 1628.66 798.415C1628.52 797.141 1627.44 796.064 1626.09 796.178Z" fill="#FF7E64"/>
<path d="M1668.07 780.97C1667.05 777.855 1664.65 775.391 1661.59 774.23C1658.7 773.125 1655.67 772.927 1652.61 772.785C1651.34 772.729 1650.21 774.145 1650.35 775.363C1650.49 776.779 1651.57 777.572 1652.93 777.628C1653.24 777.628 1653.52 777.657 1653.83 777.657C1654 777.657 1654.17 777.685 1654.34 777.685C1654.96 777.741 1655.56 777.77 1656.15 777.855C1656.75 777.94 1657.34 778.025 1657.94 778.138C1658.25 778.195 1658.59 778.28 1658.9 778.365C1659.89 778.704 1660.4 778.931 1660.91 779.214C1661.51 779.611 1661.73 779.809 1661.96 780.007C1662.52 780.602 1662.69 780.828 1662.86 781.083C1663.29 781.876 1663.4 782.159 1663.49 782.471C1663.88 783.689 1665.36 784.482 1666.57 784C1667.79 783.575 1668.5 782.273 1668.07 780.97Z" fill="#1A1A1A"/>
<path d="M1685.77 821.722C1681.38 821.581 1677.02 821.439 1672.63 821.298C1671.36 821.269 1670.22 822.657 1670.37 823.875C1670.51 825.291 1671.58 826.112 1672.94 826.14C1677.33 826.282 1681.69 826.423 1686.08 826.565C1687.35 826.593 1688.49 825.206 1688.35 823.988C1688.2 822.572 1687.13 821.779 1685.77 821.722Z" fill="#FF7E64"/>
<path d="M1649.92 837.383C1650.01 838.601 1648.99 840.045 1647.66 839.96C1639.56 839.677 1631.29 839.196 1623.96 835.882C1624.05 834.013 1624.13 832.229 1624.19 830.615C1631.13 834.495 1639.56 834.835 1647.35 835.118C1648.65 835.174 1649.81 835.996 1649.92 837.383Z" fill="#FF7E64"/>
<path d="M1864.65 849.788C1855.59 850.212 1850.38 858 1843.73 863.013C1836.42 868.507 1827.5 870.999 1818.7 872.868C1809.86 874.766 1800.27 875.587 1791.88 879.127C1784.38 882.299 1777.78 889.719 1780.79 898.328C1781.81 901.302 1786.42 899.744 1785.4 896.77C1782.12 887.312 1794.18 883.035 1801.03 881.393C1808.96 879.467 1817.08 878.362 1824.98 876.38C1832.57 874.483 1840.13 871.764 1846.42 867.034C1852.16 862.73 1857.17 854.998 1864.93 854.63C1868.1 854.489 1867.79 849.646 1864.65 849.788Z" fill="#FF7E64"/>
<path d="M1869.35 838.828C1860.37 836.137 1851.51 840.499 1844.38 845.681C1836.96 851.062 1829.6 858.085 1819.83 858C1816.69 857.972 1817.03 862.843 1820.14 862.843C1829.23 862.928 1836.73 857.547 1843.64 852.28C1850.72 846.899 1859.04 840.782 1868.41 843.585C1871.42 844.52 1872.32 839.734 1869.35 838.828Z" fill="#FF7E64"/>
<path d="M1866.69 827.783C1860.6 825.262 1853.66 825.999 1847.58 828.123C1834.21 832.824 1824.64 844.463 1811.02 848.541C1808.02 849.448 1809.58 854.036 1812.58 853.158C1822.94 850.071 1830.93 842.793 1839.96 837.242C1844.58 834.41 1849.7 831.974 1855.11 831.266C1857.94 830.898 1860.86 830.983 1863.6 831.833C1865.64 832.456 1869.58 834.665 1867.03 837.015C1864.73 839.139 1868.44 842.283 1870.71 840.187C1875.21 835.967 1871.36 829.709 1866.69 827.783Z" fill="#FF7E64"/>
<path d="M1868.87 839.507C1867.51 839.649 1866.57 840.725 1866.6 842.084C1866.6 842.311 1866.6 842.538 1866.6 842.764C1866.55 843.557 1866.49 844.01 1866.4 844.463C1866.32 844.945 1866.21 845.398 1866.06 845.851C1865.89 846.361 1865.78 846.587 1865.7 846.842C1865.53 847.267 1865.33 847.664 1865.1 848.088C1864.99 848.287 1864.88 848.485 1864.76 848.683C1864.03 849.759 1863.38 850.467 1862.67 851.147C1861.73 852.025 1861.99 853.837 1862.92 854.574C1864.05 855.452 1865.36 855.253 1866.35 854.319C1869.77 851.147 1871.59 846.446 1871.47 841.801C1871.42 840.527 1870.14 839.366 1868.87 839.507Z" fill="#FF7E64"/>
<path d="M1424.98 680.547C1419.77 680.066 1417 684.059 1415.44 688.477C1413.71 693.32 1412.72 698.36 1412.41 703.486C1411.81 713.823 1414.16 724.047 1419.09 733.109C1420.59 735.856 1424.61 733.137 1423.11 730.39C1419.26 723.282 1417.28 715.296 1417.17 707.225C1417.11 703.26 1417.53 699.295 1418.44 695.444C1419.03 692.866 1420.42 684.993 1424.05 685.333C1427.16 685.616 1428.09 680.859 1424.98 680.547Z" fill="#FF7E64"/>
<path d="M1406.83 734.695C1398.71 725.944 1394.18 714.758 1391.12 703.345C1389.62 697.709 1388.43 691.988 1387.35 686.24C1386.42 681.284 1384.21 674.175 1388.26 670.069C1390.47 667.832 1386.81 664.603 1384.61 666.84C1380.36 671.145 1380.81 677.319 1381.8 682.813C1382.99 689.553 1384.29 696.293 1385.97 702.92C1389.28 715.891 1394.4 728.38 1403.6 738.32C1405.73 740.642 1408.96 736.989 1406.83 734.695Z" fill="#FF7E64"/>
<path d="M1642.73 771.171C1641.2 771.681 1639.48 771.766 1637.81 771.653C1637.98 770.661 1637.98 769.67 1637.86 768.651C1637.61 766.612 1636.56 764.148 1634.32 763.865C1631.21 763.44 1632.17 758.654 1635.26 759.079C1638.97 759.617 1641.6 763.015 1642.42 766.498C1642.73 768.028 1642.85 769.614 1642.73 771.171Z" fill="#1A1A1A"/>
<path d="M1756.83 777.345C1753.97 768.877 1747.69 761.769 1739.54 758.116C1736.68 756.841 1734.55 761.203 1737.41 762.505C1745.37 766.102 1751.23 773.437 1753.07 781.961C1754.88 790.287 1752.19 798.812 1746.56 805.07C1734.55 818.352 1713.01 815.86 1703.72 800.709C1702.08 798.047 1698.06 800.766 1699.67 803.428C1707.8 816.681 1725.63 822.685 1739.87 815.945C1754.2 809.148 1761.99 792.496 1756.83 777.345Z" fill="#1A1A1A"/>
<path d="M1648.99 837.836C1649.08 838.969 1648.34 839.847 1647.35 840.3C1640.41 843.416 1633.28 846.021 1625.94 848.088C1625.12 848.315 1624.27 848.57 1623.42 848.683C1623.62 844.265 1623.85 839.847 1623.99 835.882C1624.08 834.636 1624.1 833.419 1624.13 832.314C1624.3 832.342 1624.5 832.399 1624.67 832.399C1625.49 832.541 1626 833.022 1626.31 833.588C1626.74 833.673 1627.19 833.758 1627.64 833.815C1629.77 834.042 1631.86 834.212 1633.98 834.41C1638.34 834.835 1642.7 835.231 1647.04 835.628C1648.08 835.712 1648.91 836.845 1648.99 837.836Z" fill="#FF7E64"/>
<path d="M1542.39 870.914C1541.29 866.213 1540.19 861.484 1539.08 856.783C1538.37 853.724 1533.76 855.31 1534.47 858.34C1535.43 862.418 1536.39 866.496 1537.33 870.574C1521.73 880.458 1510.65 896.657 1507.12 914.81C1506.52 917.897 1511.28 918.832 1511.9 915.745C1515.33 898.243 1526.17 882.865 1541.46 873.718C1542.42 873.123 1542.62 871.934 1542.39 870.914Z" fill="#D4D4FF"/>
<path d="M1766.71 1026.31C1759.75 998.751 1762.67 969.978 1758.36 942.054C1757.88 938.967 1753.04 939.279 1753.49 942.366C1757.85 970.742 1754.99 999.855 1762.07 1027.86C1762.89 1030.89 1767.48 1029.34 1766.71 1026.31Z" fill="#D4D4FF"/>
<path d="M1695.48 1004.84C1692.39 1002.21 1689.28 999.572 1686.19 996.91C1685.23 996.089 1683.59 996.145 1682.77 997.165C1681.95 998.213 1682 999.714 1683.02 1000.59C1686.11 1003.23 1689.22 1005.86 1692.31 1008.52C1693.27 1009.34 1694.91 1009.29 1695.74 1008.27C1696.56 1007.22 1696.5 1005.72 1695.48 1004.84Z" fill="#D4D4FF"/>
<path d="M1432.77 828.123C1431.35 827.84 1430.3 828.774 1429.91 830.049C1426.79 839.876 1423.06 849.504 1418.75 858.878C1417.45 861.71 1421.84 863.863 1423.14 861.002C1427.61 851.232 1431.44 841.235 1434.69 830.983C1435.09 829.737 1433.96 828.378 1432.77 828.123Z" fill="#D4D4FF"/>
<path d="M1797.63 846.984C1793.56 857.406 1792.59 871.311 1782.46 878.051C1779.85 879.778 1782.57 883.828 1785.18 882.101C1796.36 874.652 1797.52 860.634 1801.99 849.136C1803.15 846.219 1798.77 844.067 1797.63 846.984Z" fill="#FF7E64"/>
<path d="M1723.37 663.385C1721.95 660.44 1718.95 658.259 1715.55 658.769C1713.6 659.052 1711.87 659.987 1710.51 661.403C1710 661.941 1709.61 662.564 1709.3 663.215C1708.22 663.555 1707.54 664.461 1707.51 665.651C1707.46 669.021 1709.58 672.448 1712.67 673.807C1715.87 675.223 1719.57 674.402 1722.04 671.995C1724.27 669.786 1724.7 666.189 1723.37 663.385ZM1719.15 667.662C1717.34 669.417 1717.17 669.474 1717.03 669.531C1716.37 669.644 1716.18 669.672 1716.01 669.701C1715.64 669.701 1715.13 669.587 1714.93 669.531C1714.79 669.474 1714.62 669.389 1714.48 669.332C1713.88 668.936 1713.66 668.709 1713.43 668.511C1713.09 667.322 1713.26 666.869 1713.29 666.359C1713.26 667.095 1713.32 666.274 1713.35 666.104C1713.54 665.594 1713.63 665.396 1713.74 665.198C1714.45 664.461 1714.59 664.292 1714.76 664.207C1715.33 663.923 1715.55 663.81 1715.78 663.725C1716.2 663.668 1716.63 663.668 1716.74 663.64C1717.59 663.895 1717.79 664.065 1718.02 664.15C1718.61 664.83 1718.72 664.971 1718.81 665.113C1719.04 665.538 1719.09 665.736 1719.18 665.934C1719.29 666.642 1719.32 666.812 1719.32 666.982C1719.21 667.463 1719.23 667.492 1719.15 667.662Z" fill="#E8EAFF"/>
</g>
<g opacity="0.5" clip-path="url(#clip3_304_1397)">
<path d="M1634.38 256L1633.46 254.756C1632.51 253.467 1632.51 253.467 1639 246.638C1639.93 245.666 1640.65 244.897 1640.76 244.761C1641.78 243.495 1643.42 240.284 1644.6 236.892C1631.38 233.523 1622 221.04 1622 206.387C1622 198.02 1625.07 190.151 1630.64 184.226C1636.23 178.279 1643.67 175 1651.61 175H1698.67C1715.18 175 1728.8 188.884 1729 205.957C1729.11 214.482 1726.05 222.51 1720.36 228.525C1714.77 234.472 1707.31 237.751 1699.39 237.751H1666.18C1656.59 245.711 1643.54 251.704 1637.9 254.281C1636.93 254.711 1636.21 255.05 1635.78 255.276L1634.38 256ZM1651.61 178.686C1644.71 178.686 1638.19 181.558 1633.3 186.759C1628.36 192.005 1625.65 198.97 1625.65 206.387C1625.65 220 1634.76 231.487 1647.3 233.704L1649.31 234.065L1648.74 236.033C1647.55 240.171 1645.34 244.942 1643.6 247.136C1643.56 247.181 1643.29 247.475 1642.9 247.905C1649.29 244.761 1657.76 240.126 1664.33 234.563L1664.85 234.133H1699.41C1706.31 234.133 1712.81 231.261 1717.72 226.06C1722.73 220.724 1725.44 213.623 1725.35 206.048C1725.14 190.942 1713.17 178.686 1698.67 178.686H1651.61Z" fill="#E2E3F1"/>
<path d="M1706.16 203.99C1700.72 200.96 1695.63 203.922 1691.59 207.698C1691.81 206.206 1692.13 204.714 1691.59 203.266C1690.48 200.327 1687.21 200.191 1684.78 201.457C1684.04 201.842 1683.31 202.271 1682.61 202.701C1682.32 201.322 1681.64 200.078 1680.38 199.151C1679.03 198.178 1677.61 197.952 1676.21 198.178C1676.17 195.94 1675.65 193.611 1674.41 191.259C1673.98 190.445 1672.56 190.173 1671.86 190.761C1669.78 192.525 1667.78 194.379 1665.81 196.279C1664.33 192.367 1659.95 194.832 1655.96 198.246C1655.08 197.726 1653.82 197.771 1653.41 198.947L1652.53 201.435C1650.75 203.221 1649.33 204.827 1648.72 205.528C1647.32 207.111 1649.4 209.327 1651.13 208.241C1652.53 207.382 1653.68 206.319 1654.61 205.075C1654.97 204.917 1655.26 204.646 1655.44 204.148C1655.49 203.99 1655.55 203.854 1655.6 203.696C1656.32 203.018 1657.04 202.317 1657.81 201.661C1658.8 200.824 1659.82 200.01 1660.88 199.241C1660.85 199.264 1662 198.291 1662.32 197.952C1662.16 198.337 1661.76 199.422 1661.71 199.535C1661.3 200.394 1660.83 201.209 1660.38 202.023C1657.29 205.505 1654.38 209.146 1651.72 212.99C1650.37 214.957 1652.76 216.992 1654.49 215.387C1657.45 212.651 1660.04 209.598 1662.21 206.183C1662.68 205.437 1663.29 204.51 1663.9 203.515C1666.51 200.643 1669.29 197.93 1672.2 195.352C1672.65 196.822 1672.78 198.246 1672.62 199.648C1671.11 200.598 1669.76 201.842 1668.66 202.927C1664.87 206.658 1662 211.271 1660.2 216.246C1659.64 217.807 1661.28 219.774 1662.88 218.575C1668.36 214.415 1674.14 208.648 1675.78 202.023C1676.14 201.91 1676.48 201.819 1676.84 201.796C1679.05 201.638 1679.39 203.334 1679.1 205.234C1675.06 208.535 1671.61 212.696 1668.95 217.015C1668.11 218.349 1669.78 220.113 1671.18 219.548C1675.62 217.761 1679.32 214.505 1681.42 210.141C1681.8 209.327 1682.16 208.4 1682.41 207.45C1682.91 207.065 1683.38 206.658 1683.9 206.296C1684.64 205.776 1686.63 204.035 1687.6 204.239C1688.64 204.442 1688.23 205.754 1688.12 206.568C1687.87 208.558 1687.51 210.57 1688.36 212.47C1688.93 213.714 1690.51 214.211 1691.5 213.08C1694.66 209.462 1699.35 204.329 1704.6 207.224C1706.61 208.445 1708.21 205.143 1706.16 203.99Z" fill="#D2D2EA"/>
</g>
<path d="M1419.67 371.593C1417.41 367.485 1414.8 363.587 1411.89 359.95C1414.27 358.406 1411.97 354.9 1409.71 356.339C1404.17 359.924 1398.87 363.927 1393.91 368.348C1393.07 369.081 1392.67 370.258 1393.35 371.279C1394.97 373.686 1396.57 376.119 1398.19 378.526C1399.68 380.75 1401.25 383.654 1404.34 382.869C1405.58 382.555 1406.72 381.718 1407.84 381.09C1409.08 380.383 1410.3 379.651 1411.54 378.944C1414.07 377.479 1416.6 376.014 1419.14 374.549C1420.15 373.947 1420.2 372.534 1419.67 371.593ZM1404.37 378.238C1403.41 378.787 1403.46 378.944 1402.85 378.081C1402.17 377.087 1401.48 376.04 1400.82 375.02C1399.81 373.503 1398.82 372.011 1397.81 370.494C1401.23 367.563 1404.75 364.816 1408.45 362.278C1410.9 365.34 1413.13 368.61 1415.13 372.011C1411.54 374.078 1407.94 376.145 1404.37 378.238Z" fill="#E8EAFF"/>
<g opacity="0.1">
<path d="M264.038 268.052C261.251 260.529 256.123 253.432 250.889 247.439C247.229 243.253 243.165 239.364 238.761 235.964C242.442 231.628 247.208 228.143 251.782 224.85C253.378 223.681 251.676 221.131 250.059 222.299C245.165 225.848 240.208 229.525 236.314 234.157C235.25 233.392 234.165 232.67 233.059 231.968C229.612 229.801 225.782 228.271 221.633 228.845C217.633 229.397 214.037 231.437 210.781 233.711C202.59 239.406 194.951 246.036 187.824 252.985C182.887 257.788 171.972 266.883 177.547 274.682C178.696 276.297 181.249 274.576 180.1 272.961C177.887 269.837 180.121 265.991 182.164 263.377C184.526 260.359 187.419 257.661 190.164 254.983C195.973 249.309 202.143 244.018 208.611 239.109C211.696 236.771 214.845 234.285 218.484 232.861C222.378 231.31 226.058 231.628 229.739 233.584C231.356 234.455 232.952 235.432 234.484 236.516C234.144 237.005 233.782 237.472 233.463 237.982C229.59 244.166 228.824 251.434 228.548 258.574C228.271 265.502 228.676 272.961 225.931 279.485C224.42 283.098 221.952 285.882 218.824 288.177C215.675 290.493 212.271 292.448 209.505 295.253C207.037 297.739 205.249 300.8 204.207 304.072C201.505 301.543 198.909 298.887 196.483 296.061C191.036 289.707 186.355 282.758 182.504 275.341C181.589 273.577 179.036 275.32 179.951 277.062C183.866 284.564 188.611 291.619 194.143 298.037C196.781 301.097 199.59 304.03 202.547 306.771C202.824 307.026 203.1 307.281 203.356 307.536C202.781 311 202.973 314.591 203.973 317.97C204.526 319.883 207.462 318.884 206.888 316.993C206.228 314.74 205.994 312.381 206.143 310.086C207.973 311.637 209.93 313.04 212.143 313.72C216.186 314.952 219.952 312.827 223.378 310.894C227.122 308.769 230.782 306.495 234.357 304.093C241.612 299.206 248.463 293.744 254.889 287.815C257.761 285.159 260.995 282.46 263.144 279.145C265.442 275.681 265.442 271.835 264.038 268.052ZM261.315 276.255C259.868 279.464 256.612 282.035 254.102 284.394C248.527 289.664 242.569 294.552 236.314 298.993C233.186 301.225 229.973 303.35 226.675 305.368C223.484 307.323 219.952 309.959 216.25 310.809C212.569 311.659 209.398 308.917 206.739 306.431C207.654 302.797 209.526 299.418 212.292 296.804C215.165 294.084 218.739 292.235 221.803 289.749C224.399 287.667 226.569 285.18 228.059 282.205C234.25 269.922 228.91 255.217 234.399 242.721C235.101 241.149 235.952 239.661 236.91 238.28C240.357 240.979 243.569 244.039 246.463 247.12C251.357 252.327 255.57 258.213 258.932 264.503C260.868 268.031 263.102 272.302 261.315 276.255Z" fill="#8386AE"/>
<path d="M205.254 280.026C210.615 279.24 214.913 274.969 215.999 269.677C217.233 263.706 213.722 257.437 208.126 255.142C207.573 254.908 207.062 255.035 206.679 255.29C201.381 253.675 195.424 255.8 192.466 260.476C189.828 264.619 189.721 270.357 192.466 274.48C195.19 278.56 200.466 280.727 205.254 280.026ZM194.445 263.302C196.487 258.775 201.615 256.884 206.275 258.372C206.637 258.499 207.02 258.393 207.339 258.18C210.871 259.881 213.296 263.514 213.19 267.488C213.084 271.611 210.147 275.521 206.19 276.69C202.594 277.752 198.339 276.541 195.828 273.778C193.253 270.973 192.913 266.681 194.445 263.302Z" fill="#8386AE"/>
</g>
<g opacity="0.1" clip-path="url(#clip4_304_1397)">
<path d="M359.946 422.162C359.865 417.556 358.919 412.923 357.243 408.64C357.081 408.236 356.811 407.912 356.487 407.67C356.433 407.455 356.351 407.212 356.216 406.997C355.595 406.108 354.054 405.596 353.135 406.404C349.919 409.205 346.703 411.98 343.487 414.808C341.973 416.128 340.405 417.582 340.054 419.657C339.676 421.892 341.081 423.589 342.892 424.694C346.324 426.822 350.189 428.465 354.027 429.677C355.973 430.296 358.162 430.054 359.243 428.088C360.189 426.418 359.973 424.02 359.946 422.162ZM346.514 421.731C345.946 421.407 345.297 421.111 344.811 420.761C344.703 420.68 344.433 420.465 344.405 420.411C344.541 419.306 346.081 418.31 346.784 417.69C349.081 415.697 351.378 413.704 353.676 411.71C354.514 414.162 355.108 416.694 355.378 419.279C355.541 420.842 355.595 422.458 355.568 424.047C355.568 424.397 355.541 424.747 355.514 425.098C352.243 424.64 349.297 423.212 346.514 421.731Z" fill="#8386AE"/>
</g>
<g clip-path="url(#clip5_304_1397)">
<path d="M1640.82 402.988C1640.24 400.421 1638.05 398.564 1635.51 398.127C1632.54 397.599 1629.5 398.801 1627.91 401.404C1627.62 401.878 1627.76 402.533 1628.12 402.97C1627.58 403.116 1627.07 403.516 1627.02 404.099C1626.76 407.121 1628.47 409.87 1631.11 411.235C1633.7 412.583 1636.73 412.146 1638.79 410.107C1640.64 408.322 1641.38 405.482 1640.82 402.988ZM1637.87 406.065C1637.85 406.12 1637.72 406.484 1637.83 406.174C1637.65 406.629 1637.56 406.83 1637.45 407.048C1637.4 407.139 1637.32 407.248 1637.27 407.358C1637.45 407.048 1637.23 407.412 1637.18 407.485C1637.05 407.649 1636.91 407.813 1636.76 407.977C1636.69 408.068 1636.6 408.14 1636.53 408.231C1636.8 407.958 1636.53 408.231 1636.47 408.268C1636.31 408.395 1636.15 408.505 1635.98 408.614C1635.87 408.668 1635.78 408.723 1635.68 408.796C1636.02 408.614 1635.57 408.832 1635.49 408.869C1635.31 408.923 1635.15 408.96 1634.97 409.014C1634.61 409.069 1634.48 409.069 1634.34 409.069C1633.56 408.996 1633.32 408.941 1633.1 408.869C1632.72 408.723 1632.56 408.65 1632.42 408.559C1632.29 408.505 1632.16 408.45 1632.05 408.377C1631.67 408.104 1631.42 407.904 1631.2 407.685C1630.64 407.03 1630.5 406.775 1630.33 406.502C1630.22 406.247 1630.17 406.138 1630.13 406.01C1630.08 405.883 1630.04 405.756 1630.01 405.628C1629.95 405.228 1629.93 405.1 1629.92 404.954C1629.92 404.9 1629.93 404.372 1629.92 404.663C1629.95 404.208 1629.83 403.771 1629.57 403.443C1629.97 403.334 1630.33 403.061 1630.57 402.679C1630.69 402.515 1630.77 402.406 1630.84 402.315C1630.91 402.224 1631 402.151 1631.08 402.06C1631.27 401.896 1631.44 401.769 1631.6 401.659C1631.69 401.586 1631.8 401.532 1631.91 401.477C1632.27 401.313 1632.45 401.241 1632.63 401.186C1632.76 401.15 1632.87 401.113 1632.98 401.077C1633.57 400.967 1633.99 400.949 1634.41 400.949C1634.72 400.967 1634.82 400.986 1634.95 401.004C1635.15 401.059 1635.33 401.113 1635.53 401.15C1635.73 401.222 1635.84 401.259 1635.95 401.313C1636.06 401.368 1636.16 401.404 1636.27 401.459C1636.74 401.75 1636.83 401.823 1636.92 401.914C1637.02 401.987 1637.09 402.078 1637.18 402.151C1637.36 402.369 1637.47 402.533 1637.58 402.697C1637.67 402.879 1637.79 403.134 1637.81 403.189C1637.88 403.371 1637.92 403.571 1637.99 403.753C1638.01 403.971 1638.03 404.081 1638.05 404.208C1638.07 404.445 1638.07 404.681 1638.07 404.918C1638.07 405.064 1638.05 405.228 1638.01 405.373C1637.98 405.61 1637.92 405.828 1637.87 406.065Z" fill="#E8EAFF"/>
</g>
</g>
<defs>
<linearGradient id="paint0_linear_304_1397" x1="1385.19" y1="719.643" x2="1532.47" y2="521.439" gradientUnits="userSpaceOnUse">
<stop stop-color="#FF8094"/>
<stop offset="1" stop-color="#F0CC11"/>
</linearGradient>
<clipPath id="clip0_304_1397">
<rect width="1920" height="1080" fill="white"/>
</clipPath>
<clipPath id="clip1_304_1397">
<rect width="281.174" height="83.9612" fill="white" transform="translate(354.107 46)"/>
</clipPath>
<clipPath id="clip2_304_1397">
<rect width="562" height="571" fill="white" transform="matrix(-1 0 0 1 586 567.255)"/>
</clipPath>
<clipPath id="clip3_304_1397">
<rect width="107" height="81" fill="white" transform="translate(1622 175)"/>
</clipPath>
<clipPath id="clip4_304_1397">
<rect width="20" height="24" fill="white" transform="translate(340 406)"/>
</clipPath>
<clipPath id="clip5_304_1397">
<rect width="14" height="14" fill="white" transform="translate(1627 398)"/>
</clipPath>
</defs>
</svg>
