<svg width="25" height="25" viewBox="0 0 25 25" fill="none" xmlns="http://www.w3.org/2000/svg">
<g clip-path="url(#clip0_306_1260)">
<path d="M22.362 3.37353C19.512 0.523529 14.8908 0.523021 12.0406 3.37353C9.91666 5.49744 9.37583 8.60515 10.4176 11.2302L0.5 21.1478L1.06344 24.6721L3.6593 24.578L5.30516 24.5181L5.2617 23.4504L5.21799 22.3825L6.28591 22.4262L7.35384 22.4699L7.31013 21.402L7.26641 20.334L8.33434 20.3778L9.40226 20.4215L9.35855 19.3535L9.31484 18.2856L10.3828 18.3293L11.4507 18.373L14.5055 15.3182C17.1309 16.3599 20.2383 15.8194 22.3622 13.6955C25.2128 10.845 25.2125 6.22405 22.362 3.37353ZM20.8325 7.00123C20.2533 7.58043 19.314 7.58069 18.7345 7.00123C18.1553 6.42203 18.1556 5.4827 18.7348 4.9035C19.314 4.3243 20.2533 4.32404 20.8325 4.90325C21.412 5.4827 21.4115 6.42203 20.8325 7.00123Z" fill="#D9D9D9"/>
</g>
<defs>
<clipPath id="clip0_306_1260">
<rect width="24" height="24" fill="white" transform="translate(0.5 0.953979)"/>
</clipPath>
</defs>
</svg>
